<svg width="960" height="960" viewBox="0 0 960 960" fill="none" xmlns="http://www.w3.org/2000/svg">
<g clip-path="url(#clip0_30_303)">
<path fill-rule="evenodd" clip-rule="evenodd" d="M412.838 10.9904C412.838 17.0413 404.793 31.335 394.96 42.7669C377.966 62.5329 372.578 63.8268 284.804 69.3144C175.95 76.1187 121.899 95.8468 71.73 147.1C26.2794 193.543 7.35184 241.82 3.34866 321.569L0 388.167H79.8201H159.64L163.506 334.12C169.694 247.666 199.55 228.874 331.267 228.516C403.743 228.318 438.478 218.15 465.526 189.212C481.463 172.171 482.726 171.965 490.222 185.293C505.474 212.411 556.1 227.983 629.74 228.212C710.283 228.455 750.475 238.022 775.316 262.865C790.895 278.445 793.368 288.263 793.368 334.546V388.167H877.085H960.802L960.756 355.819C960.581 228.874 914.727 145.015 819.975 98.366C776.343 76.8799 761.936 73.8887 685.206 70.4028C586.573 65.9198 559.129 56.0254 552.424 22.5061L547.926 0H480.382C426.575 0 412.838 2.23767 412.838 10.9904ZM3.34866 637.431C11.7279 804.236 114.395 890.18 305.787 890.614C365.705 890.744 389.983 901.369 405.227 934.135L416.643 958.673L482.285 958.833L547.926 959L552.203 937.628C558.703 905.129 593.544 891.855 683.014 887.79C774.296 883.642 830.242 864.995 878.28 822.708C931.935 775.481 960.802 700.314 960.802 607.854V570.833H877.085H793.368V622.414C793.368 711.159 765.46 730.667 638.523 730.667C552.036 730.667 513.846 741.117 492.901 770.511C481.242 786.882 480.222 787.042 472.589 773.708C456.249 745.173 406.901 731.009 323.169 730.834C198.652 730.568 169.686 711.243 163.468 624.309L159.64 570.833H79.8201H0L3.34866 637.431Z" fill="#392EE0"/>
</g>
<defs>
<clipPath id="clip0_30_303">
<rect width="960" height="960" fill="white"/>
</clipPath>
</defs>
</svg>
